<?xml version="1.0" encoding="utf-8"?><!-- Uploaded to: SVG Repo, www.svgrepo.com, Generator: SVG Repo Mixer Tools -->
<svg version="1.1" id="Uploaded to svgrepo.com" xmlns="http://www.w3.org/2000/svg" xmlns:xlink="http://www.w3.org/1999/xlink" 
	 width="800px" height="800px" viewBox="0 0 32 32" xml:space="preserve">
<style type="text/css">
	.feather_een{fill:#0B1719;}
</style>
<path class="feather_een" d="M14.197,2.113C7.871,2.903,2.796,8.062,2.09,14.398c-0.387,3.47,0.502,6.716,2.248,9.342l-2.059,4.632
	c-0.168,0.378-0.086,0.821,0.207,1.113l0.029,0.029c0.293,0.293,0.735,0.375,1.113,0.207l4.632-2.059
	c2.626,1.747,5.872,2.635,9.342,2.248c6.336-0.706,11.495-5.782,12.285-12.108C31.029,8.658,23.342,0.971,14.197,2.113z M16,28.923
	c-2.551,0-5.021-0.746-7.144-2.158l-0.493-0.328l-5.042,2.241l2.241-5.042l-0.328-0.493C3.823,21.021,3.077,18.551,3.077,16
	C3.077,8.874,8.874,3.077,16,3.077c7.126,0,12.923,5.797,12.923,12.923S23.126,28.923,16,28.923z M15,21.5L15,21.5
	c0-0.277,0.224-0.5,0.5-0.5H15.5c0.276,0,0.5,0.224,0.5,0.5V21.5c0,0.276-0.224,0.5-0.5,0.5H15.5C15.224,22,15,21.776,15,21.5z
	 M15,19.5v-2.603c0-0.22,0.178-0.398,0.398-0.398h0.001c1.882,0,3.504-1.443,3.597-3.323C19.095,11.167,17.488,9.5,15.5,9.5
	c-1.624,0-2.994,1.113-3.387,2.616c-0.058,0.224-0.254,0.384-0.485,0.384h0c-0.328,0-0.567-0.311-0.485-0.628
	c0.52-2.005,2.39-3.471,4.577-3.366c2.119,0.102,3.916,1.725,4.229,3.823c0.358,2.401-1.247,4.612-3.55,5.081L16,17.491V19.5
	c0,0.276-0.224,0.5-0.5,0.5H15.5C15.224,20,15,19.776,15,19.5z"/>
</svg>